name C:\Users\r0593348\3dpredictsim\Results\Batchsim_tmt_linear\Pog_s1_tmt_bCst_d05_k1000_ig24.mot
datacolumns 128
datarows 4
range 1.07478902 1.10703269
endheader
time	pelvis_tilt	pelvis_list	pelvis_rotation	pelvis_tx	pelvis_ty	pelvis_tz	hip_flexion_l	hip_adduction_l	hip_rotation_l	hip_flexion_r	hip_adduction_r	hip_rotation_r	knee_angle_l	knee_angle_r	ankle_angle_l	ankle_angle_r	subtalar_angle_l	subtalar_angle_r	tmt_angle_l	tmt_angle_r	mtp_angle_l	mtp_angle_r	lumbar_extension	lumbar_bending	lumbar_rotation	arm_flex_l	arm_add_l	arm_rot_l	arm_flex_r	arm_add_r	arm_rot_r	elbow_flex_l	elbow_flex_r	pro_sup_l	pro_sup_r	glut_med1_l/activation	glut_med2_l/activation	glut_med3_l/activation	glut_min1_l/activation	glut_min2_l/activation	glut_min3_l/activation	semimem_l/activation	semiten_l/activation	bifemlh_l/activation	bifemsh_l/activation	sar_l/activation	add_long_l/activation	add_brev_l/activation	add_mag1_l/activation	add_mag2_l/activation	add_mag3_l/activation	tfl_l/activation	pect_l/activation	grac_l/activation	glut_max1_l/activation	glut_max2_l/activation	glut_max3_l/activation	iliacus_l/activation	psoas_l/activation	quad_fem_l/activation	gem_l/activation	peri_l/activation	rect_fem_l/activation	vas_med_l/activation	vas_int_l/activation	vas_lat_l/activation	med_gas_l/activation	lat_gas_l/activation	soleus_l/activation	tib_post_l/activation	flex_dig_l/activation	flex_hal_l/activation	tib_ant_l/activation	per_brev_l/activation	per_long_l/activation	per_tert_l/activation	ext_dig_l/activation	ext_hal_l/activation	ercspn_l/activation	intobl_l/activation	extobl_l/activation	glut_med1_r/activation	glut_med2_r/activation	glut_med3_r/activation	glut_min1_r/activation	glut_min2_r/activation	glut_min3_r/activation	semimem_r/activation	semiten_r/activation	bifemlh_r/activation	bifemsh_r/activation	sar_r/activation	add_long_r/activation	add_brev_r/activation	add_mag1_r/activation	add_mag2_r/activation	add_mag3_r/activation	tfl_r/activation	pect_r/activation	grac_r/activation	glut_max1_r/activation	glut_max2_r/activation	glut_max3_r/activation	iliacus_r/activation	psoas_r/activation	quad_fem_r/activation	gem_r/activation	peri_r/activation	rect_fem_r/activation	vas_med_r/activation	vas_int_r/activation	vas_lat_r/activation	med_gas_r/activation	lat_gas_r/activation	soleus_r/activation	tib_post_r/activation	flex_dig_r/activation	flex_hal_r/activation	tib_ant_r/activation	per_brev_r/activation	per_long_r/activation	per_tert_r/activation	ext_dig_r/activation	ext_hal_r/activation	ercspn_r/activation	intobl_r/activation	extobl_r/activation	
          1.07478902	         -2.92961960	         -2.21164076	          5.32368317	          1.34348628	          0.85851026	         -0.00231752	        -18.11790469	         -1.65144977	          7.12871153	         31.64437281	          3.09266733	         -1.82240716	         -6.02325499	        -14.64862472	          1.43736973	          7.35780532	          9.64771560	         -3.01622689	          1.02427656	          0.03471851	         20.67266650	         -0.12732757	         -1.98279612	          0.55857901	         -1.92248483	          8.61560518	        -13.45289319	         18.53879088	         -7.90911174	        -13.50465439	         10.40349274	         33.19536331	         12.13049326	         86.51662706	         86.51662706	          0.32708802	          0.11396745	          0.08197028	          0.33516688	          0.22251569	          0.11396760	          0.05000021	          0.05000003	          0.05000002	          0.07686371	          0.11396784	          0.05000002	          0.05000001	          0.05000002	          0.05000007	          0.05000006	          0.32866490	          0.05000010	          0.05000007	          0.05000156	          0.05000065	          0.05000019	          0.38395864	          0.63575547	          0.05000003	          0.05000011	          0.05439443	          0.19949247	          0.05000037	          0.05000017	          0.05000018	          0.33249379	          0.44713514	          0.31497102	          0.27438954	          0.28990093	          0.38570005	          0.05000000	          0.05977515	          0.15920275	          0.05000003	          0.05000000	          0.05000003	          0.05000000	          0.05000000	          0.05000000	          0.05000027	          0.05000003	          0.05895648	          0.05000002	          0.05000003	          0.05000017	          0.05895658	          0.05895659	          0.20423750	          0.05000007	          0.05000017	          0.10432569	          0.15955002	          0.19505188	          0.16078500	          0.11257740	          0.05895665	          0.05000486	          0.05895706	          0.05896212	          0.06951746	          0.10270379	          0.05000001	          0.05000002	          0.16811209	          0.05000019	          0.05000005	          0.05000004	          0.09937204	          0.10141565	          0.08749948	          0.05895620	          0.05000055	          0.05895656	          0.05000000	          0.05000018	          0.05000036	          0.49424017	          0.37498546	          0.21708954	          0.28630370	          0.54061747	          0.27664884	          0.07322883	          0.11094204	          0.11396757	
          1.08553691	         -2.92496245	         -2.30595777	          5.61676125	          1.35947707	          0.85743583	         -0.00212083	        -17.98982130	         -1.95046266	          6.90316856	         31.06581326	          3.45367252	         -1.62548334	         -7.95277140	        -14.54231491	          0.71205983	          6.78931093	         10.60028127	         -3.49618172	          0.98823067	          0.04236053	         21.77544167	         -0.10834446	         -1.79587390	          0.77919369	         -1.99633613	          8.48141541	        -13.46143955	         18.68922072	         -8.94038193	        -13.49782994	         10.32243523	         34.34768886	         11.99220635	         86.51662706	         86.51662706	          0.27739743	          0.09665373	          0.06951751	          0.28424896	          0.18871153	          0.09665386	          0.05000079	          0.05000011	          0.05000016	          0.06518672	          0.09665409	          0.11972469	          0.06336796	          0.06037227	          0.05000216	          0.06951694	          0.27873475	          0.06293838	          0.05000060	          0.05000047	          0.05000033	          0.05000035	          0.32562836	          0.57081764	          0.05000010	          0.05894497	          0.05895659	          0.16918596	          0.05000066	          0.18683541	          0.16729254	          0.28198194	          0.37920719	          0.26851525	          0.24841155	          0.24586002	          0.32710544	          0.05000000	          0.05069426	          0.16103718	          0.05000002	          0.05000000	          0.05000002	          0.05000000	          0.06951754	          0.05000000	          0.06537178	          0.05895635	          0.05000002	          0.05895671	          0.05895656	          0.05000014	          0.05000001	          0.05000005	          0.17552302	          0.05000007	          0.05000030	          0.08847703	          0.13531154	          0.23153031	          0.17616232	          0.10191910	          0.05000009	          0.05000052	          0.05000049	          0.05000487	          0.05895653	          0.11433237	          0.05328372	          0.05929905	          0.51120924	          0.13310268	          0.08126664	          0.06951758	          0.18758743	          0.19145981	          0.16577687	          0.05000000	          0.05000000	          0.05000000	          0.05000004	          0.05895663	          0.05000609	          0.54760454	          0.33493358	          0.22677255	          0.44670531	          0.57669862	          0.24872085	          0.06210404	          0.09408793	          0.09665382	
          1.09628480	         -2.91631726	         -2.39718162	          5.88584576	          1.37576943	          0.85637963	         -0.00193427	        -17.78740634	         -2.24155401	          6.66579503	         30.35942919	          3.75908482	         -1.36346002	        -10.01425695	        -14.95601500	         -0.17008846	          6.17252458	         11.51162623	         -3.99863397	          0.93158538	         -0.02957439	         22.75199465	         -0.15109956	         -1.58645268	          1.00337319	         -2.06060664	          8.25769995	        -13.46951249	         18.76760388	         -9.99651394	        -13.49419696	         10.25789153	         35.47100398	         11.92043338	         86.51662706	         86.51662706	          0.35160343	          0.08197028	          0.05895655	          0.24106642	          0.16004283	          0.08197039	          0.05000040	          0.05000013	          0.05000013	          0.05528368	          0.08197062	          0.14448066	          0.11422087	          0.05895689	          0.05895669	          0.05895659	          0.23638996	          0.08768897	          0.05187959	          0.05000225	          0.05000338	          0.05895632	          0.27615952	          0.54302284	          0.05895648	          0.05000028	          0.05000003	          0.14348354	          0.09794908	          0.15845182	          0.14187789	          0.23914376	          0.32159873	          0.22772291	          0.21067334	          0.20850946	          0.27741221	          0.05000000	          0.05000006	          0.18007959	          0.05000001	          0.05000000	          0.05000002	          0.05588372	          0.05895657	          0.05000032	          0.26118111	          0.05000001	          0.29659412	          0.05000013	          0.05000003	          0.22988330	          0.07566859	          0.05000007	          0.15925938	          0.05000001	          0.05000008	          0.08197087	          0.23107241	          0.19635675	          0.14940062	          0.13336354	          0.05000009	          0.05895750	          0.12174456	          0.05000002	          0.05000002	          0.10328187	          0.05895653	          0.05203915	          0.43354728	          0.11288198	          0.15685533	          0.05895660	          0.15908951	          0.16237360	          0.14059236	          0.06117769	          0.05895967	          0.05895660	          0.05895657	          0.05000008	          0.05000008	          0.46441347	          0.34650307	          0.19232170	          0.37884269	          0.58075328	          0.21093564	          0.05266931	          0.10120573	          0.08197035	
          1.10703269	         -2.90532602	         -2.48750831	          6.12342315	          1.39220713	          0.85534626	         -0.00173683	        -17.48997310	         -2.52341747	          6.42360293	         29.52685942	          4.02731787	         -1.09107909	        -12.22355855	        -15.39683836	         -1.20347975	          5.72324545	         12.36528275	         -4.49501026	          0.86750234	         -0.01711375	         23.54047066	         -0.16107580	         -1.37029520	          1.23224741	         -2.11578950	          7.96621299	        -13.48090389	         18.78580351	        -11.03626732	        -13.49390283	         10.22738623	         36.55617854	         11.88791346	         86.51662706	         86.51662706	          0.30592433	          0.06951751	          0.05000001	          0.35193989	          0.13572943	          0.06951761	          0.05000057	          0.05000003	          0.05000002	          0.05000003	          0.06951794	          0.13212890	          0.09686867	          0.05000030	          0.05000021	          0.05000010	          0.25464387	          0.07436779	          0.05000010	          0.05000027	          0.05000016	          0.05000010	          0.23420591	          0.50588942	          0.05000001	          0.05000013	          0.05000007	          0.13438253	          0.08306891	          0.13438030	          0.12307355	          0.20281348	          0.27274204	          0.19312766	          0.17866824	          0.17683311	          0.23526828	          0.05000000	          0.09545389	          0.18423242	          0.05000003	          0.05000008	          0.05000003	          0.07504770	          0.05000000	          0.05000000	          0.31653281	          0.28861032	          0.36535081	          0.17925811	          0.21178350	          0.19495995	          0.06417318	          0.09342606	          0.13506500	          0.08197035	          0.05001891	          0.06951801	          0.19596832	          0.16652661	          0.12670400	          0.15285485	          0.05000006	          0.05000084	          0.10324942	          0.22140944	          0.16909345	          0.13124888	          0.05000001	          0.05000001	          0.36768358	          0.09573321	          0.13302620	          0.05000002	          0.13492095	          0.13770633	          0.11923387	          0.05188369	          0.05000263	          0.05000002	          0.05000000	          0.05895658	          0.05339966	          0.58920903	          0.42587213	          0.21882611	          0.63813111	          0.64005425	          0.33288889	          0.07721211	          0.08983836	          0.06951757	
